<?xml version="1.0" encoding="UTF-8"?>
<svg width="70px" height="91px" viewBox="0 0 70 91" version="1.1" xmlns="http://www.w3.org/2000/svg" xmlns:xlink="http://www.w3.org/1999/xlink">
    <!-- Generator: Sketch 55.1 (78136) - https://sketchapp.com -->
    <title>noun_Award_2533875</title>
    <desc>Created with Sketch.</desc>
    <g id="Page-1" stroke="none" stroke-width="1" fill="none" fill-rule="evenodd">
        <g id="Brief-Campagne" transform="translate(-370.000000, -3463.000000)"  fill-rule="nonzero">
            <g id="noun_Award_2533875" transform="translate(370.000000, 3463.000000)">
                <path d="M59.9315784,63 C59.2157067,66.5726161 56.148993,69.0986739 52.2986653,69.0986739 C52.2986653,69.0986739 52.2986653,69.0986739 52.2986653,69.0986739 C51.0628255,69.0986739 49.83614,68.8378866 48.6552264,68.3231299 L44.8927807,66.6834082 L42.5163064,69.8554686 C42.3551895,70.0719391 42.1775948,70.2730692 42,70.4690859 L52.1137471,90.6605033 C52.3352828,91.1053758 52.7197663,91.1138983 52.9669343,90.6809572 L57.8333969,82.1278141 C58.0805649,81.6948731 58.703062,81.4238588 59.2193684,81.5261283 L69.38438,83.5527698 C69.9006864,83.6550394 70.1387,83.3755026 69.9171643,82.9306301 L59.9315784,63 Z"></path>
                <path d="M27.1072995,66.6863683 L23.3449581,68.3258904 C22.1622464,68.8405845 20.9374258,69.1013401 19.7016202,69.1013401 C15.8513993,69.1013401 12.7829398,66.5738855 12.067088,63 L2.08360975,82.9316124 C1.86024933,83.3764308 2.10008716,83.6559335 2.61637926,83.5536764 L12.781109,81.5272816 C13.2974011,81.4250245 13.9198809,81.6960058 14.167042,82.1288942 L19.0333698,90.680996 C19.2805309,91.1138844 19.6650037,91.105363 19.8865333,90.6605446 L30,70.4698809 C29.8224102,70.2721838 29.6466511,70.0727825 29.4855387,69.8580426 L27.1072995,66.6863683 Z"></path>
                <path d="M68.7613474,31.9639654 L64.565535,29.1188515 C62.9143034,28.0003661 62.2625978,25.6353652 63.1156731,23.8625036 L65.284974,19.3636673 C66.1398799,17.5925839 65.1971036,16.0064329 63.1907291,15.8392824 L58.0942449,15.4142936 C56.0878703,15.2471431 54.3048331,13.51518 54.1327536,11.566277 L53.6952321,6.61755707 C53.5231525,4.66865406 51.8902273,3.75288303 50.0669161,4.58152245 L45.4354129,6.68690672 C43.6102711,7.51554614 41.1755283,6.8825083 40.0240597,5.27857535 L37.0968764,1.20294971 C35.9454078,-0.400983238 34.0580245,-0.400983238 32.9065559,1.20294971 L29.9793726,5.27857535 C28.827904,6.8825083 26.3931612,7.51554614 24.5680194,6.68690672 L19.9346856,4.57974425 C18.1113744,3.75110484 16.4784492,4.66509767 16.3063696,6.61577888 L15.8688482,11.566277 C15.6967686,13.51518 13.915562,15.2471431 11.9073568,15.4142936 L6.80904201,15.8392824 C4.80266749,16.0064329 3.85989114,17.5925839 4.71296644,19.3636673 L6.88409799,23.86606 C7.73717329,25.6371434 7.0854677,28.0021443 5.43423611,29.1224079 L1.23842369,31.9657436 C-0.412807897,33.084229 -0.412807897,34.9175492 1.23842369,36.0360346 L5.43423611,38.8793703 C7.0854677,39.9978557 7.73717329,42.3628566 6.88409799,44.1357182 L4.71296644,48.6363327 C3.8580605,50.4074161 4.80083685,51.9935671 6.80721138,52.1607176 L11.9055262,52.5857064 C13.9119007,52.7528569 15.6949379,54.4830418 15.8670175,56.433723 L16.304539,61.3859993 C16.4766185,63.3349023 18.1095438,64.2506734 19.9328549,63.4220339 L24.5661888,61.3130933 C26.3895,60.4844539 28.8242428,61.1174917 29.977542,62.7214246 L32.9047253,66.7970503 C34.0561939,68.4009832 35.9435772,68.4009832 37.0950458,66.7970503 L40.0222291,62.7214246 C41.1736977,61.1174917 43.6084405,60.4844539 45.4335823,61.3130933 L50.0669161,63.4202557 C51.8902273,64.2488952 53.5231525,63.3349023 53.6952321,61.3842211 L54.1327536,56.433723 C54.3048331,54.48482 56.0860397,52.7528569 58.0942449,52.5857064 L63.1907291,52.1607176 C65.1971036,51.9935671 66.1398799,50.4074161 65.2868046,48.6363327 L63.1175037,44.1357182 C62.2644284,42.3628566 62.916134,39.9978557 64.5673656,38.8793703 L68.763178,36.0378128 C70.412579,34.9139928 70.412579,33.0824508 68.7613474,31.9639654 Z M35.0008009,54.449256 C23.3744463,54.449256 13.9485134,45.2933239 13.9485134,34 C13.9485134,22.7048979 23.3744463,13.550744 35.0008009,13.550744 C46.6289861,13.550744 56.0530883,22.7066761 56.0530883,34 C56.0530883,45.2933239 46.6271554,54.449256 35.0008009,54.449256 Z"></path>
                <path d="M47.3527359,23.6266386 C45.5936365,22.5347195 43.1717162,22.9078204 41.9354873,24.4498566 L33.3110408,35.2167263 L27.6896977,30.0720417 C26.2007805,28.7097101 23.739985,28.6686348 22.1927551,29.9779108 C20.6455251,31.2888983 20.5969312,33.4556217 22.0858485,34.8179533 L30.9707583,42.9508677 C31.7054981,43.6234762 32.7181951,44 33.771711,44 C33.8688988,44 33.9680304,43.9965771 34.0652182,43.9897312 C35.2217532,43.9127149 36.2791566,43.3838701 36.9478087,42.5503833 L48.2857389,28.3947993 C49.5277992,26.8510516 49.1079478,24.7168462 47.3527359,23.6266386 Z"></path>
            </g>
        </g>
    </g>
</svg>