<?xml version="1.0" encoding="UTF-8"?>
<svg width="9px" height="16px" viewBox="0 0 9 16" version="1.1" xmlns="http://www.w3.org/2000/svg" xmlns:xlink="http://www.w3.org/1999/xlink">
    <!-- Generator: Sketch 56.2 (81672) - https://sketch.com -->
    <title>facebook</title>
    <desc>Created with Sketch.</desc>
    <g id="Symbols" stroke="none" stroke-width="1" fill="none" fill-rule="evenodd">
        <g id="footer-general" transform="translate(-713.000000, -159.000000)" fill="#242B45">
            <g id="social" transform="translate(646.000000, 34.000000)">
                <path d="M69.0785909,140.954618 L69.0785909,133.468218 L67,133.468218 L67,130.772655 L69.0785909,130.772655 L69.0785909,128.4704 C69.0785909,126.661236 70.3064395,125 73.1355775,125 C74.2811011,125 75.1283304,125.104582 75.1283304,125.104582 L75.0614319,127.621673 C75.0614319,127.621673 74.1975543,127.613673 73.2548647,127.613673 C72.2345849,127.613673 72.0711569,128.061382 72.0711569,128.804655 C72.0711569,129.392145 72.0711569,127.552436 72.0711569,130.7728 L75.1425349,130.7728 L75.0088905,133.468364 L72.0711569,133.468364 L72.0711569,140.954764 L69.0785909,140.954764 L69.0785909,140.954618 Z" id="facebook"></path>
            </g>
        </g>
    </g>
</svg>