<?xml version="1.0" encoding="UTF-8"?>
<svg width="26px" height="30px" viewBox="0 0 26 30" version="1.1" xmlns="http://www.w3.org/2000/svg" xmlns:xlink="http://www.w3.org/1999/xlink">
    <!-- Generator: Sketch 55.2 (78181) - https://sketchapp.com -->
    <title>Icons / Feed Copy</title>
    <desc>Created with Sketch.</desc>
    <defs>
        <path d="M10.0874929,3.85714286 L25.9125071,3.85714286 C27.6318647,3.85714286 28.2553453,4.03616368 28.8839167,4.37232736 C29.5124881,4.70849104 30.0057947,5.20179757 30.3419584,5.830369 C30.678122,6.45894043 30.8571429,7.08242103 30.8571429,8.8017786 L30.8571429,27.1982214 C30.8571429,28.917579 30.678122,29.5410596 30.3419584,30.169631 C30.0057947,30.7982024 29.5124881,31.291509 28.8839167,31.6276726 C28.2553453,31.9638363 27.6318647,32.1428571 25.9125071,32.1428571 L10.0874929,32.1428571 C8.36813532,32.1428571 7.74465471,31.9638363 7.11608329,31.6276726 C6.48751186,31.291509 5.99420532,30.7982024 5.65804164,30.169631 C5.32187796,29.5410596 5.14285714,28.917579 5.14285714,27.1982214 L5.14285714,8.8017786 C5.14285714,7.08242103 5.32187796,6.45894043 5.65804164,5.830369 C5.99420532,5.20179757 6.48751186,4.70849104 7.11608329,4.37232736 C7.74465471,4.03616368 8.36813532,3.85714286 10.0874929,3.85714286 Z M10.0874929,6.42857143 C8.90811293,6.42857143 8.61966285,6.48427371 8.32876607,6.63984701 C8.14831357,6.73635406 8.02206835,6.86259928 7.9255613,7.04305178 C7.769988,7.33394856 7.71428571,7.62239864 7.71428571,8.8017786 L7.71428571,27.1982214 C7.71428571,28.3776014 7.769988,28.6660514 7.9255613,28.9569482 C8.02206835,29.1374007 8.14831357,29.2636459 8.32876607,29.360153 C8.61966285,29.5157263 8.90811293,29.5714286 10.0874929,29.5714286 L25.9125071,29.5714286 C27.0918871,29.5714286 27.3803372,29.5157263 27.6712339,29.360153 C27.8516864,29.2636459 27.9779317,29.1374007 28.0744387,28.9569482 C28.230012,28.6660514 28.2857143,28.3776014 28.2857143,27.1982214 L28.2857143,8.8017786 C28.2857143,7.62239864 28.230012,7.33394856 28.0744387,7.04305178 C27.9779317,6.86259928 27.8516864,6.73635406 27.6712339,6.63984701 C27.3803372,6.48427371 27.0918871,6.42857143 25.9125071,6.42857143 L10.0874929,6.42857143 Z M11.5714286,9 L19.2857143,9 C19.9957947,9 20.5714286,9.57563389 20.5714286,10.2857143 C20.5714286,10.9957947 19.9957947,11.5714286 19.2857143,11.5714286 L11.5714286,11.5714286 C10.8613482,11.5714286 10.2857143,10.9957947 10.2857143,10.2857143 C10.2857143,9.57563389 10.8613482,9 11.5714286,9 Z M11.9339262,14.1428571 L24.0660738,14.1428571 C24.639193,14.1428571 24.8470199,14.2025308 25.0565437,14.3145853 C25.2660675,14.4266399 25.430503,14.5910754 25.5425575,14.8005992 C25.6546121,15.010123 25.7142857,15.2179499 25.7142857,15.7910691 L25.7142857,25.3517881 C25.7142857,25.9249073 25.6546121,26.1327341 25.5425575,26.342258 C25.430503,26.5517818 25.2660675,26.7162173 25.0565437,26.8282718 C24.8470199,26.9403264 24.639193,27 24.0660738,27 L11.9339262,27 C11.360807,27 11.1529801,26.9403264 10.9434563,26.8282718 C10.7339325,26.7162173 10.569497,26.5517818 10.4574425,26.342258 C10.3453879,26.1327341 10.2857143,25.9249073 10.2857143,25.3517881 L10.2857143,15.7910691 C10.2857143,15.2179499 10.3453879,15.010123 10.4574425,14.8005992 C10.569497,14.5910754 10.7339325,14.4266399 10.9434563,14.3145853 C11.1529801,14.2025308 11.360807,14.1428571 11.9339262,14.1428571 Z" id="path-1"></path>
    </defs>
    <g id="Page-1" stroke="none" stroke-width="1" fill="none" fill-rule="evenodd">
        <g id="Accueil" transform="translate(-42.000000, -386.000000)">
            <g id="Icons-/-Feed" transform="translate(37.000000, 383.000000)">
                <mask id="mask-2" fill="white">
                    <use xlink:href="#path-1"></use>
                </mask>
                <use id="Icon" fill="#242B45" fill-rule="nonzero" xlink:href="#path-1"></use>
            </g>
        </g>
    </g>
</svg>