<?xml version="1.0" encoding="UTF-8"?>
<svg width="18px" height="18px" viewBox="0 0 18 18" version="1.1" xmlns="http://www.w3.org/2000/svg" xmlns:xlink="http://www.w3.org/1999/xlink">
    <!-- Generator: Sketch 56.2 (81672) - https://sketch.com -->
    <title>noun_Camera_12387</title>
    <desc>Created with Sketch.</desc>
    <g id="Symbols" stroke="none" stroke-width="1" fill="none" fill-rule="evenodd">
        <g id="footer-general" transform="translate(-797.000000, -158.000000)" fill="#242B45" fill-rule="nonzero">
            <g id="social" transform="translate(646.000000, 34.000000)">
                <g id="noun_Camera_12387" transform="translate(151.000000, 124.000000)">
                    <g id="Group">
                        <path d="M13.16592,8.51681407 C13.16592,10.880536 11.30076,12.7974073 9,12.7974073 C6.69942,12.7974073 4.83462,10.880721 4.83462,8.51681407 C4.83462,7.98173992 4.93434,7.47237448 5.1084,7 L0,7 L0,13.3763157 C0,15.9303561 2.01492,18 4.5,18 L13.50018,18 C15.98544,18 18,15.9303561 18,13.3763157 L18,7 L12.89142,7 C13.06584,7.47218953 13.16592,7.98173992 13.16592,8.51681407 Z" id="Path"></path>
                        <circle id="Oval" cx="8.5" cy="8.5" r="2.5"></circle>
                        <path d="M13.50018,0 L4.73706,0 L4.73706,4.03282695 L3.753,4.03282695 L3.753,0.0577024226 C3.41064,0.106587049 3.08034,0.185947217 2.76894,0.297484608 L2.76894,4.03298165 L1.78506,4.03298165 L1.78506,0.788341945 C0.702,1.49453915 0,2.60929427 0,3.86760929 L0,5 L6.06204,5 C6.81552,4.35599146 7.85358,3.95764364 9,3.95764364 C10.14642,3.95764364 11.1843,4.35599146 11.9376,5 L18,5 L18,3.86760929 C18,1.73169147 15.98544,0 13.50018,0 Z M15.5106,3.65752916 C15.5106,3.89715665 15.2838,4.09223106 15.00462,4.09223106 L13.48758,4.09223106 C13.20786,4.09223106 12.9816,3.89777544 12.9816,3.65752916 L12.9816,2.35342347 C12.9816,2.11348659 13.20786,1.91856688 13.48758,1.91856688 L15.00462,1.91856688 C15.2838,1.91856688 15.5106,2.11302249 15.5106,2.35342347 L15.5106,3.65752916 L15.5106,3.65752916 Z" id="Shape"></path>
                    </g>
                </g>
            </g>
        </g>
    </g>
</svg>