<?xml version="1.0" encoding="UTF-8"?>
<svg width="20px" height="18px" viewBox="0 0 20 18" version="1.1" xmlns="http://www.w3.org/2000/svg" xmlns:xlink="http://www.w3.org/1999/xlink">
    <!-- Generator: Sketch 56.2 (81672) - https://sketch.com -->
    <title>Shape</title>
    <desc>Created with Sketch.</desc>
    <g id="Symbols" stroke="none" stroke-width="1" fill="none" fill-rule="evenodd">
        <g id="footer-general" transform="translate(-765.000000, -158.000000)" fill="#242B45" fill-rule="nonzero">
            <g id="social" transform="translate(646.000000, 34.000000)">
                <g id="Linkedin" transform="translate(119.000000, 124.000000)">
                    <path d="M2.95454545,0.0732498876 C1.33087091,0.0732498876 0,1.25757506 0,2.70246337 C0,4.14735169 1.33087091,5.33167685 2.95454545,5.33167685 C4.57822,5.33167685 5.90909091,4.14735169 5.90909091,2.70246337 C5.90909091,1.25757506 4.57822,0.0732498876 2.95454545,0.0732498876 Z M14.7727273,5.33167685 C13.4831545,5.33167685 12.5518059,5.76294472 11.8181818,6.29235101 C11.7899175,5.99188894 11.4751832,5.73515049 11.1363636,5.73617124 L7.5,5.73617124 C7.14301068,5.73620299 6.81818182,6.02523243 6.81818182,6.34291281 L6.81818182,17.2642611 C6.81818182,17.5819415 7.14301068,17.8710027 7.5,17.8710027 L11.3636364,17.8710027 C11.7206257,17.8710027 12.0454189,17.5819415 12.0454545,17.2642611 L12.0454545,11.1968454 C12.0454545,10.7258926 12.215408,10.2810802 12.4502841,9.98968247 C12.6851602,9.69830494 12.941125,9.57886787 13.1818182,9.57886787 L13.6363636,9.57886787 C13.8770568,9.57886787 14.1330216,9.69830494 14.3678977,9.98968247 C14.6027739,10.2810802 14.7727273,10.7258926 14.7727273,11.1968454 L14.7727273,17.2642611 C14.772763,17.5819415 15.0975561,17.8710027 15.4545455,17.8710027 L19.3181818,17.8710027 C19.6751711,17.8710027 20,17.5819415 20,17.2642611 L20,10.1856094 C20,8.81131955 19.7098632,7.58675326 18.8494318,6.69052517 C17.9890005,5.79429708 16.60872,5.33167685 14.7727273,5.33167685 Z M1.06534091,5.73617043 C0.732649727,5.76720202 0.452756455,6.04523751 0.454536926,6.34291281 L0.454536926,17.2642611 C0.454536926,17.5819415 0.779374227,17.8710027 1.13636364,17.8710027 L5,17.8710027 C5.35698932,17.8710027 5.68181818,17.5819415 5.68181818,17.2642611 L5.68181818,6.34291281 C5.68181818,6.02523243 5.35698932,5.73617043 5,5.73617043 C3.69119523,5.73617043 2.36862591,5.73617043 1.06534091,5.73617043 Z" id="Shape"></path>
                </g>
            </g>
        </g>
    </g>
</svg>