<?xml version="1.0" encoding="UTF-8"?>
<svg width="32px" height="24px" viewBox="0 0 32 24" version="1.1" xmlns="http://www.w3.org/2000/svg" xmlns:xlink="http://www.w3.org/1999/xlink">
    <!-- Generator: Sketch 55.2 (78181) - https://sketchapp.com -->
    <title>Icons / Photos</title>
    <desc>Created with Sketch.</desc>
    <defs>
        <path d="M10.2781709,11.5714286 L30.8646862,11.5714286 C31.756205,11.5714286 32.0794912,11.6642542 32.4054171,11.8385613 C32.7313431,12.0128684 32.9871316,12.2686569 33.1614387,12.5945829 C33.3357458,12.9205088 33.4285714,13.243795 33.4285714,14.1353138 L33.4285714,27.0075434 C33.4285714,27.8990621 33.3357458,28.2223483 33.1614387,28.5482743 C32.9871316,28.8742002 32.7313431,29.1299888 32.4054171,29.3042959 C32.0794912,29.478603 31.756205,29.5714286 30.8646862,29.5714286 L10.2781709,29.5714286 C9.38665217,29.5714286 9.06336594,29.478603 8.73744001,29.3042959 C8.41151408,29.1299888 8.15572551,28.8742002 7.98141842,28.5482743 C7.80711133,28.2223483 7.71428571,27.8990621 7.71428571,27.0075434 L7.71428571,14.1353138 C7.71428571,13.243795 7.80711133,12.9205088 7.98141842,12.5945829 C8.15572551,12.2686569 8.41151408,12.0128684 8.73744001,11.8385613 C9.06336594,11.6642542 9.38665217,11.5714286 10.2781709,11.5714286 Z M28.2857143,10.2857143 L11.0107095,10.2857143 C9.77156211,10.2857143 9.11138941,10.4131995 8.42342842,10.7811251 C7.78032134,11.1250625 7.26791965,11.6374642 6.92398222,12.2805713 C6.55605666,12.9685323 6.42857143,13.628705 6.42857143,14.8678524 L6.42857143,24.4285714 L5.8678524,24.4285714 C4.72161402,24.4285714 4.30596029,24.3092242 3.88691267,24.0851151 C3.46786505,23.861006 3.13899402,23.532135 2.9148849,23.1130873 C2.69077579,22.6940397 2.57142857,22.278386 2.57142857,21.1321476 L2.57142857,10.5491012 C2.57142857,9.11630324 2.72061259,8.59673607 3.00074899,8.07292655 C3.28088539,7.54911702 3.69197417,7.13802824 4.21578369,6.85789185 C4.73959321,6.57775545 5.25916038,6.42857143 6.69195836,6.42857143 L24.9892905,6.42857143 C26.1355288,6.42857143 26.5511826,6.54791864 26.9702302,6.77202776 C27.3892778,6.99613688 27.7181488,7.3250079 27.942258,7.74405552 C28.1663671,8.16310314 28.2857143,8.57875688 28.2857143,9.72499526 L28.2857143,10.2857143 Z" id="path-1"></path>
    </defs>
    <g id="Page-1" stroke="none" stroke-width="1" fill="none" fill-rule="evenodd">
        <g id="Accueil" transform="translate(-39.000000, -448.000000)">
            <g id="Icons-/-Photos" transform="translate(37.000000, 442.000000)">
                <mask id="mask-2" fill="white">
                    <use xlink:href="#path-1"></use>
                </mask>
                <use id="Icon" fill="#000000" fill-rule="evenodd" xlink:href="#path-1"></use>
                <g id="Colors-/-Black" mask="url(#mask-2)" fill="#242B45" fill-rule="evenodd">
                    <rect id="Color" x="0" y="0" width="36" height="36"></rect>
                </g>
            </g>
        </g>
    </g>
</svg>