<?xml version="1.0" encoding="UTF-8"?>
<svg width="20px" height="16px" viewBox="0 0 20 16" version="1.1" xmlns="http://www.w3.org/2000/svg" xmlns:xlink="http://www.w3.org/1999/xlink">
    <!-- Generator: Sketch 56.2 (81672) - https://sketch.com -->
    <title>twitter</title>
    <desc>Created with Sketch.</desc>
    <g id="Symbols" stroke="none" stroke-width="1" fill="none" fill-rule="evenodd">
        <g id="footer-general" transform="translate(-733.000000, -159.000000)" fill="#242B45">
            <g id="social" transform="translate(646.000000, 34.000000)">
                <path d="M104.528402,127.530015 C105.369976,127.030135 106.016431,126.238576 106.320733,125.295321 C105.533005,125.758286 104.660634,126.094361 103.732031,126.275491 C102.988513,125.49043 101.92907,125 100.756569,125 C98.5053516,125 96.6800373,126.808447 96.6800373,129.039105 C96.6800373,129.35569 96.7161005,129.664005 96.7855445,129.959621 C93.397591,129.79119 90.3939143,128.183068 88.383416,125.739287 C88.0325201,126.335835 87.8314405,127.029643 87.8314405,127.769914 C87.8314405,129.171311 88.5511148,130.407623 89.6449324,131.131947 C88.9766208,131.110979 88.3481476,130.929258 87.7985564,130.626751 C87.798159,130.643584 87.798159,130.660516 87.798159,130.677546 C87.798159,132.63454 89.2033321,134.267075 91.0681868,134.638195 C90.7261328,134.730532 90.3659976,134.77985 89.9941394,134.77985 C89.7313648,134.77985 89.4760414,134.754453 89.2270762,134.707398 C89.7459689,136.312074 91.2512845,137.47997 93.0351708,137.512456 C91.6400318,138.59589 89.8823733,139.24156 87.9724148,139.24156 C87.6433754,139.24156 87.3189059,139.222463 87,139.185056 C88.8040539,140.331196 90.9468833,141 93.2488676,141 C100.746933,141 104.847209,134.845116 104.847209,129.507386 C104.847209,129.332261 104.843235,129.15812 104.835386,128.984766 C105.632055,128.415387 106.323117,127.703959 106.869629,126.893992 C106.138629,127.215301 105.352888,127.432362 104.528402,127.530015 Z" id="twitter"></path>
            </g>
        </g>
    </g>
</svg>