<?xml version="1.0" encoding="UTF-8"?>
<svg width="12px" height="12px" viewBox="0 0 12 12" version="1.1" xmlns="http://www.w3.org/2000/svg" xmlns:xlink="http://www.w3.org/1999/xlink">
    <title>Icons / Write</title>
    <desc>Created with Sketch.</desc>
    <defs>
        <path d="M13,13.8707782 L18.7715558,8.09922242 C18.9038523,7.96692586 19.1183474,7.96692586 19.250644,8.09922242 L19.9007776,8.749356 C20.0330741,8.88165256 20.0330741,9.09614767 19.9007776,9.22844424 L14.1292218,15 L13,13.8707782 Z M13.1116529,15.6963603 L12.2274571,15.9910853 C12.1369145,16.0212654 12.0390489,15.9723338 12.008868,15.8817933 C11.997044,15.8463221 11.997044,15.8079727 12.008868,15.7725014 L12.3036,14.8883263 C12.4148907,14.554462 12.6011573,14.2506013 12.8480266,14 L14,15.1519464 C13.7493928,15.3988099 13.445525,15.5850722 13.1116529,15.6963603 Z M16.5908117,8.51213203 L16.0786797,9.02426407 C15.9661578,9.1367859 15.8135455,9.2 15.6544156,9.2 L10.3074967,9.2 C9.75711937,9.2 9.62250933,9.2259944 9.4867575,9.29859527 C9.40254633,9.3436319 9.3436319,9.40254633 9.29859527,9.4867575 C9.2259944,9.62250933 9.2,9.75711937 9.2,10.3074967 L9.2,17.6925033 C9.2,18.2428806 9.2259944,18.3774907 9.29859527,18.5132425 C9.3436319,18.5974537 9.40254633,18.6563681 9.4867575,18.7014047 C9.62250933,18.7740056 9.75711937,18.8 10.3074967,18.8 L17.6925033,18.8 C18.2428806,18.8 18.3774907,18.7740056 18.5132425,18.7014047 C18.5974537,18.6563681 18.6563681,18.5974537 18.7014047,18.5132425 C18.7740056,18.3774907 18.8,18.2428806 18.8,17.6925033 L18.8,12.3455844 C18.8,12.1864545 18.8632141,12.0338422 18.9757359,11.9213203 L19.487868,11.4091883 C19.6050253,11.292031 19.7949747,11.292031 19.912132,11.4091883 C19.9683929,11.4654492 20,11.5417554 20,11.6213203 L20,17.6925033 C20,18.4948702 19.9164569,18.7858278 19.7595806,19.0791611 C19.6027042,19.3724945 19.3724945,19.6027042 19.0791611,19.7595806 C18.7858278,19.9164569 18.4948702,20 17.6925033,20 L10.3074967,20 C9.50512981,20 9.2141722,19.9164569 8.92083887,19.7595806 C8.62750553,19.6027042 8.39729582,19.3724945 8.24041943,19.0791611 C8.08354305,18.7858278 8,18.4948702 8,17.6925033 L8,10.3074967 C8,9.50512981 8.08354305,9.2141722 8.24041943,8.92083887 C8.39729582,8.62750553 8.62750553,8.39729582 8.92083887,8.24041943 C9.2141722,8.08354305 9.50512981,8 10.3074967,8 L16.3786797,8 C16.5443651,8 16.6786797,8.13431458 16.6786797,8.3 C16.6786797,8.37956495 16.6470726,8.45587112 16.5908117,8.51213203 Z" id="path-1"></path>
    </defs>
    <g id="Page-1" stroke="none" stroke-width="1" fill="none" fill-rule="evenodd">
        <g id="Influenceurs" transform="translate(-968.000000, -264.000000)">
            <g id="Group-7" transform="translate(376.000000, 253.000000)">
                <g id="Icons-/-Write" transform="translate(584.000000, 3.000000)">
                    <mask id="mask-2" fill="white">
                        <use xlink:href="#path-1"></use>
                    </mask>
                    <use id="Icon" fill="#000000" fill-rule="nonzero" xlink:href="#path-1"></use>
                    <g id="Colors-/-Pink" mask="url(#mask-2)" fill="#F13F4B" fill-rule="evenodd">
                        <rect id="Color" x="0" y="0" width="28" height="28"></rect>
                    </g>
                </g>
            </g>
        </g>
    </g>
</svg>